<svg width="1816" height="512" viewBox="0 0 1816 512" fill="none" xmlns="http://www.w3.org/2000/svg">
<g clip-path="url(#clip0_56_14)">
<g clip-path="url(#clip1_56_14)">
<rect width="512" height="512" fill="#191614"/>
<rect x="56" y="379" width="399" height="78" rx="39" fill="white"/>
<rect x="186" y="256" width="269" height="78" rx="39" fill="white"/>
<rect x="56" y="133" width="269" height="78" rx="39" fill="white"/>
</g>
<path d="M645.581 400V108H706.781L787.981 344C787.181 335.467 786.248 325.467 785.181 314C784.381 302.267 783.715 290.4 783.181 278.4C782.648 266.133 782.381 255.467 782.381 246.4V108H827.981V400H766.781L686.381 164C686.915 171.733 687.581 181.067 688.381 192C689.181 202.933 689.848 214.133 690.381 225.6C690.915 237.067 691.181 247.6 691.181 257.2V400H645.581ZM891.825 400V108H1067.03V151.6H941.025V227.6H1053.03V270.8H941.025V356.4H1067.03V400H891.825ZM1216.47 404C1197.8 404 1181.54 400.533 1167.67 393.6C1154.07 386.4 1143.54 376.4 1136.07 363.6C1128.87 350.533 1125.27 335.2 1125.27 317.6V190.4C1125.27 172.8 1128.87 157.6 1136.07 144.8C1143.54 131.733 1154.07 121.733 1167.67 114.8C1181.54 107.6 1197.8 104 1216.47 104C1235.4 104 1251.67 107.6 1265.27 114.8C1278.87 121.733 1289.27 131.733 1296.47 144.8C1303.94 157.6 1307.67 172.667 1307.67 190V317.6C1307.67 335.2 1303.94 350.533 1296.47 363.6C1289.27 376.4 1278.87 386.4 1265.27 393.6C1251.67 400.533 1235.4 404 1216.47 404ZM1216.47 360C1230.07 360 1240.34 356.4 1247.27 349.2C1254.2 341.733 1257.67 331.2 1257.67 317.6V190.4C1257.67 176.533 1254.2 166 1247.27 158.8C1240.34 151.6 1230.07 148 1216.47 148C1202.87 148 1192.6 151.6 1185.67 158.8C1178.74 166 1175.27 176.533 1175.27 190.4V317.6C1175.27 331.2 1178.74 341.733 1185.67 349.2C1192.87 356.4 1203.14 360 1216.47 360ZM1365.11 400V108H1426.31L1507.51 344C1506.71 335.467 1505.78 325.467 1504.71 314C1503.91 302.267 1503.25 290.4 1502.71 278.4C1502.18 266.133 1501.91 255.467 1501.91 246.4V108H1547.51V400H1486.31L1405.91 164C1406.45 171.733 1407.11 181.067 1407.91 192C1408.71 202.933 1409.38 214.133 1409.91 225.6C1410.45 237.067 1410.71 247.6 1410.71 257.2V400H1365.11ZM1606.16 400V108H1692.96C1712.69 108 1729.76 111.733 1744.16 119.2C1758.82 126.667 1770.16 137.2 1778.16 150.8C1786.16 164.4 1790.16 180.533 1790.16 199.2V308.4C1790.16 326.8 1786.16 342.933 1778.16 356.8C1770.16 370.4 1758.82 381.067 1744.16 388.8C1729.76 396.267 1712.69 400 1692.96 400H1606.16ZM1656.16 354H1692.96C1707.36 354 1718.82 350 1727.36 342C1735.89 333.733 1740.16 322.533 1740.16 308.4V199.2C1740.16 185.333 1735.89 174.4 1727.36 166.4C1718.82 158.133 1707.36 154 1692.96 154H1656.16V354Z" fill="black"/>
</g>
<defs>
<clipPath id="clip0_56_14">
<rect width="1816" height="512" fill="white"/>
</clipPath>
<clipPath id="clip1_56_14">
<rect width="512" height="512" rx="96" fill="white"/>
</clipPath>
</defs>
</svg>
